# xmcd CD database file
#
# Track frame offsets:
#	150
#	14980
#	30539
#	44955
#	59265
#	77740
#	94411
#	107904
#	121912
#	137526
#	153512
#	173394
#	202651
#
# Disc length: 2915 seconds
#
# Revision: 0
# Processed by: cddbd v1.5.2PL0 Copyright (c) Steve Scherf et al.
# Submitted via: CDex 1.70beta2
#
DISCID=ac0b610d
DTITLE=Norah Jones - ...LITTLE BROKEN HEARTS
DYEAR=2012
DGENRE=Blues
TTITLE0=GOOD MORNING
TTITLE1=SAY GOODBYE
TTITLE2=LITTLE BROKEN HEART
TTITLE3=SHE'S 22
TTITLE4=TAKE IT BACK
TTITLE5=AFTER THE FALL
TTITLE6=4 BROKEN HEARTS
TTITLE7=TRAVELIN' ON
TTITLE8=OUT ON THE ROAD
TTITLE9=HAPPY PILLS
TTITLE10=MIRIAM
TTITLE11=ALL A DREAM
TTITLE12=I DON'T WANNA HEAR ANOTHER SOUND
EXTD=YEAR: 2012
EXTT0=
EXTT1=
EXTT2=
EXTT3=
EXTT4=
EXTT5=
EXTT6=
EXTT7=
EXTT8=
EXTT9=
EXTT10=
EXTT11=
EXTT12=
PLAYORDER=
